<?xml version="1.0" encoding="utf-8"?>
<!-- Generator: Adobe Illustrator 24.3.0, SVG Export Plug-In . SVG Version: 6.00 Build 0)  -->
<svg version="1.1" id="Layer_1" xmlns="http://www.w3.org/2000/svg" xmlns:xlink="http://www.w3.org/1999/xlink" x="0px" y="0px"
	 viewBox="0 0 500 500" style="enable-background:new 0 0 500 500;" xml:space="preserve">
<style type="text/css">
	.st0{fill:#96B67B;}
	.st1{fill:#FFFFFF;}
</style>
<g>
	<g>
		<path class="st0" d="M364.65,260.91H154c-3.35,0-6.06,2.71-6.06,6.06c0,3.35,2.71,6.06,6.06,6.06h210.65
			c3.35,0,6.06-2.71,6.06-6.06C370.71,263.63,367.99,260.91,364.65,260.91L364.65,260.91z"/>
		<path class="st0" d="M320.92,299.96H152.78c-2.67,0-4.84,2.71-4.84,6.06c0,3.35,2.17,6.06,4.84,6.06h168.15
			c2.67,0,4.84-2.71,4.84-6.06C325.76,302.68,323.6,299.96,320.92,299.96L320.92,299.96z"/>
		<path class="st0" d="M278.21,339.01H151.58c-2.01,0-3.64,2.71-3.64,6.06c0,3.35,1.63,6.06,3.64,6.06h126.63
			c2.01,0,3.64-2.71,3.64-6.06C281.86,341.72,280.23,339.01,278.21,339.01L278.21,339.01z"/>
		<path class="st0" d="M245.47,378.06h-94.8c-1.51,0-2.73,2.71-2.73,6.06c0,3.35,1.22,6.06,2.73,6.06h94.8
			c1.51,0,2.73-2.71,2.73-6.06C248.2,380.77,246.98,378.06,245.47,378.06L245.47,378.06z"/>
		<path class="st0" d="M364.65,180.97h-77.4c-3.35,0-6.06,2.71-6.06,6.06c0,3.35,2.71,6.06,6.06,6.06h77.4
			c3.35,0,6.06-2.71,6.06-6.06C370.71,183.69,367.99,180.97,364.65,180.97z"/>
		<path class="st0" d="M364.65,148.94h-77.4c-3.35,0-6.06,2.71-6.06,6.06c0,3.35,2.71,6.06,6.06,6.06h77.4
			c3.35,0,6.06-2.71,6.06-6.06C370.71,151.65,367.99,148.94,364.65,148.94z"/>
		<path class="st0" d="M406.62,376.01c3.35,0,6.06-2.71,6.06-6.06V98.19c0-13.14-10.69-23.83-23.83-23.83h-11.53V62.83
			c0-13.14-10.69-23.83-23.83-23.83H100.81c-13.14,0-23.83,10.69-23.83,23.83v330.7c0,13.14,10.69,23.83,23.83,23.83h11.52v11.52
			c0,13.14,10.69,23.83,23.83,23.83h252.68c13.14,0,23.83-10.69,23.83-23.83v-30.6c0-3.35-2.71-6.06-6.06-6.06s-6.06,2.71-6.06,6.06
			v30.6c0,6.46-5.25,11.71-11.71,11.71H136.16c-6.46,0-11.71-5.25-11.71-11.71V98.19c0-6.46,5.25-11.71,11.71-11.71h252.68
			c6.46,0,11.71,5.25,11.71,11.71v271.77C400.56,373.3,403.27,376.01,406.62,376.01z M112.33,98.19v307.05h-11.52
			c-6.46,0-11.71-5.25-11.71-11.71V62.83c0-6.46,5.25-11.71,11.71-11.71h252.69c6.46,0,11.71,5.25,11.71,11.71v11.52H136.16
			C123.02,74.36,112.33,85.05,112.33,98.19L112.33,98.19z"/>
		<path class="st0" d="M153.51,158.71c-3.35,0-6.06,2.71-6.06,6.06v45.76c0,9.5,7.11,17.42,16.54,18.44
			c2.29,0.25,67.6,0.01,67.7,0.01c0.02,0,0.04,0,0.07-0.01c9.44-1.02,16.55-8.94,16.55-18.44V131.5c0-10.23-8.32-18.55-18.55-18.55
			h-63.74c-10.23,0-18.55,8.32-18.55,18.55v4.74c0,3.35,2.71,6.06,6.06,6.06s6.06-2.71,6.06-6.06v-4.74c0-3.55,2.89-6.43,6.43-6.43
			h63.74c3.55,0,6.43,2.89,6.43,6.43v62.04c-4.63-4.9-10.18-8.9-16.39-11.72c2.6-4.1,4.04-8.9,4.04-13.9
			c0-14.31-11.65-25.96-25.96-25.96c-14.31,0-25.96,11.65-25.96,25.96c0,5.01,1.44,9.81,4.04,13.9
			c-6.21,2.83-11.76,6.82-16.39,11.72v-28.77C159.57,161.42,156.86,158.71,153.51,158.71L153.51,158.71z M197.88,154.07
			c7.63,0,13.84,6.21,13.84,13.84c0,4.62-2.3,8.92-6.14,11.5c-2.28,1.53-4.94,2.34-7.7,2.34c-2.76,0-5.42-0.81-7.7-2.34
			c-3.85-2.58-6.14-6.88-6.14-11.5C184.04,160.28,190.25,154.07,197.88,154.07z M185.97,190.96c3.67,1.9,7.73,2.91,11.91,2.91
			c4.18,0,8.24-1.01,11.91-2.91c11.47,3.51,20.76,11.88,25.44,22.96c-1.01,1.64-2.74,2.8-4.79,3.01
			c-0.39,0.02-64.06,0.09-64.98,0.01l-0.13-0.01c0,0-0.01,0-0.01,0c-2.05-0.22-3.78-1.37-4.79-3.01
			C165.21,202.84,174.5,194.47,185.97,190.96z"/>
		<rect x="315.52" y="333.15" class="st1" width="103.91" height="122.93"/>
	</g>
</g>
<g>
	<path class="st0" d="M366.11,481.08c-0.04,0-0.08,0-0.12,0c-9.63-0.06-17.77-8.43-17.77-18.27V386.5c0-6.94,3.93-13.08,10.26-16.02
		c6.3-2.92,13.48-2.01,18.8,2.39l37.52,27.94c23.64,17.23,30.96,21.62,23.64,24.55c-7.32,2.93-8.78,1.46-30.68-15.09l-37.65-28.04
		c-0.1-0.07-0.19-0.15-0.28-0.22c-2.69-2.27-5.56-1.21-6.38-0.83c-0.81,0.37-3.44,1.87-3.44,5.33v76.31c0,3.8,3.19,6.46,6.06,6.48
		c1.21,0.01,2.62-0.18,4.28-2.48l19.13-27.66c1.1-1.59,2.91-2.54,4.84-2.54l31.41-0.03c3.01-0.15,4.87-2.42,5.56-4.32
		c0.44-1.23,0.87-3.57-1.21-5.42c-2.43-2.16-2.65-5.89-0.49-8.32c2.16-2.43,5.89-2.65,8.32-0.49c5.15,4.58,6.86,11.55,4.47,18.21
		c-2.55,7.09-8.94,11.85-16.3,12.12c-0.07,0-0.14,0-0.21,0l-28.44,0.02l-17.4,25.16c-0.02,0.02-0.03,0.05-0.05,0.07
		C376.48,478.51,371.69,481.08,366.11,481.08z M355.25,363.36c2.83-1.6,3.84-5.19,2.23-8.03l-10.31-18.27
		c-1.6-2.83-5.19-3.84-8.03-2.23c-2.83,1.6-3.84,5.19-2.23,8.03l10.31,18.27c1.08,1.92,3.08,3,5.14,3
		C353.34,364.12,354.33,363.87,355.25,363.36z M342.46,376.71c1.26-3-0.15-6.46-3.16-7.71l-18.27-7.66c-3-1.26-6.46,0.15-7.71,3.16
		c-1.26,3,0.15,6.46,3.16,7.71l18.27,7.66c0.74,0.31,1.52,0.46,2.28,0.46C339.33,380.33,341.52,378.97,342.46,376.71z
		 M379.49,357.63l6.19-19.74c0.97-3.11-0.76-6.41-3.86-7.39c-3.11-0.97-6.41,0.76-7.39,3.86l-6.19,19.74
		c-0.97,3.11,0.76,6.41,3.86,7.39c0.59,0.18,1.18,0.27,1.76,0.27C376.37,361.76,378.7,360.15,379.49,357.63z M395.61,372.12
		l15.32-11.2c2.63-1.92,3.2-5.61,1.28-8.24c-1.92-2.63-5.61-3.2-8.24-1.28l-15.32,11.2c-2.63,1.92-3.2,5.61-1.28,8.24
		c1.15,1.58,2.95,2.42,4.76,2.42C393.34,373.25,394.56,372.88,395.61,372.12z M321.88,409.06l16.5-6.78
		c3.01-1.24,4.45-4.68,3.21-7.69c-1.24-3.01-4.68-4.45-7.69-3.21l-16.5,6.78c-3.01,1.24-4.45,4.68-3.21,7.69
		c0.94,2.28,3.13,3.66,5.45,3.66C320.39,409.5,321.15,409.36,321.88,409.06z"/>
	<polygon class="st0" points="355.03,381.45 355.03,465.82 365.27,473.65 375.52,469.26 390.15,445.84 412.1,444.38 431.13,441.45 
		436.69,424.93 372.59,378.52 	"/>
</g>
</svg>
