<?xml version="1.0" encoding="utf-8"?>
<!-- Generator: Adobe Illustrator 24.3.0, SVG Export Plug-In . SVG Version: 6.00 Build 0)  -->
<svg version="1.1" id="Layer_1" xmlns="http://www.w3.org/2000/svg" xmlns:xlink="http://www.w3.org/1999/xlink" x="0px" y="0px"
	 viewBox="0 0 500 500" style="enable-background:new 0 0 500 500;" xml:space="preserve">
<style type="text/css">
	.st0{fill:#96B67B;}
</style>
<g>
	<path class="st0" d="M444.9,356.6H424c5-6,8-13.8,8-22V121.3c0-19.1-15.5-34.6-34.6-34.6H261.1c-3.4,0-6.1,2.7-6.1,6.1
		s2.7,6.1,6.1,6.1h136.3c12.3,0,22.3,10,22.3,22.3v213.4c0,10.7-7.9,20.1-18.4,22c-9,0-295,0-309.1,0c-10.5-1.9-18.4-11.3-18.4-22
		V121.3c0-12.3,10-22.3,22.3-22.3h136.3c3.4,0,6.1-2.7,6.1-6.1c0-3.4-2.7-6.1-6.1-6.1H96.2c-19.1,0-34.6,15.5-34.6,34.6v213.4
		c0,8.2,3,15.9,8,22H48.7c-6,0-10.9,4.9-10.9,10.9v16.5c0,15.6,12.6,28.4,28.2,28.4h361.6c15.5,0,28.2-12.7,28.2-28.4v-16.5
		C455.8,361.5,450.9,356.6,444.9,356.6L444.9,356.6z M193.8,368.9h106.1v4.9c0,2-1.7,3.8-3.7,3.8h-98.8c-2,0-3.7-1.7-3.7-3.8V368.9z
		 M443.6,384.1c0,8.9-7.1,16.1-15.9,16.1H66c-8.8,0-15.9-7.2-15.9-16.1v-15.2h131.4v4.9c0,8.8,7.1,16,15.9,16h98.8
		c8.8,0,15.9-7.2,15.9-16v-4.9h131.4V384.1z"/>
	<path class="st0" d="M330.8,289.5c3.4,0,6.1-2.7,6.1-6.1c0-7.6,0-68.1,0-76.8v-4.1c0-3.4-2.7-6.1-6.1-6.1c-3.4,0-6.1,2.7-6.1,6.1
		v0.2l-21.9,10.3v-8.3c0-12.4-10.1-22.5-22.5-22.5h-101c-12.4,0-22.5,10.1-22.5,22.5v76.6c0,12.4,10.1,22.5,22.5,22.5h101
		c12.4,0,22.5-10.1,22.5-22.5v-8.3l21.9,10.3v0.2C324.7,286.8,327.5,289.5,330.8,289.5L330.8,289.5z M290.6,281.2
		c0,5.7-4.6,10.3-10.3,10.3h-101c-5.7,0-10.3-4.6-10.3-10.3v-76.6c0-5.7,4.6-10.3,10.3-10.3h101c5.7,0,10.3,4.6,10.3,10.3
		C290.6,212.7,290.6,272.6,290.6,281.2z M302.8,259.4v-32.9l21.9-10.3v53.5L302.8,259.4z"/>
	<path class="st0" d="M400.3,234.8c3.4,0,6.1-2.7,6.1-6.1c0-0.5,0-102.8,0-105.4c0-6.2-5-11.2-11.2-11.2c-3.7,0-291,0-296.8,0
		c-6.2,0-11.2,5-11.2,11.2v209.1c0,6.2,5,11.2,11.2,11.2h296.8c6.2,0,11.2-5,11.2-11.2v-75.1c0-3.4-2.7-6.1-6.1-6.1
		c-3.4,0-6.1,2.7-6.1,6.1v74.1H99.5V154.6h294.7v74.1C394.2,232,396.9,234.8,400.3,234.8L400.3,234.8z M120.4,142.3H99.5v-18h20.9
		V142.3z M132.6,142.3v-18h261.6v18H132.6z"/>
</g>
</svg>
